<svg xmlns="http://www.w3.org/2000/svg" version="1.1" xmlns:xlink="http://www.w3.org/1999/xlink" xmlns:svgjs="http://svgjs.dev/svgjs" width="1000" height="1000" viewBox="0 0 1000 1000"><rect width="1000" height="1000" fill="#000000"></rect><g transform="matrix(0.7,0,0,0.7,150.07466666666664,374.24093999999997)"><svg viewBox="0 0 375 135" data-background-color="#010c80" preserveAspectRatio="xMidYMid meet" height="360" width="1000" xmlns="http://www.w3.org/2000/svg" xmlns:xlink="http://www.w3.org/1999/xlink"><g id="tight-bounds" transform="matrix(1,0,0,1,-0.03976000000000113,-0.12907500000000027)"><svg viewBox="0 0 375.07953 135.25815" height="135.25815" width="375.07953"><g><svg></svg></g><g><svg viewBox="0 0 375.07953 135.25815" height="135.25815" width="375.07953"><g transform="matrix(1,0,0,1,-10.22024,-56.674859999999995)"><path d="M10.22 190.525v-133.85h375.08v133.85h-125.947l0-2.973h122.974v-127.904h-369.134v127.904l34.78 0 0 2.973z" fill="#ffffff" fill-rule="nonzero" stroke="none" stroke-width="1" stroke-linecap="butt" stroke-linejoin="miter" stroke-miterlimit="10" stroke-dasharray="" stroke-dashoffset="0" font-family="none" font-weight="none" font-size="none" text-anchor="none" style="mix-blend-mode: normal" data-fill-palette-color="tertiary"></path><g><path d="M59.3 191.933h-2.409v-7.233h2.409zM63.059 191.933h-3.378v-1.444h1.193v-0.916h2.185zM64.394 188.314l-0.25-3.614h2.242l-0.257 3.614zM74.108 191.933h-2.355v-4.344h-3.427v-0.719l0.723-0.726h3.614l1.445 1.445zM68.81 188.564h2.561v1.003h-1.241v1.015h1.241v0.637l-0.719 0.714h-1.842l-0.971-0.953v-1.451zM76.713 191.933l-2.163-5.789h2.393l2.059 5.789zM81.198 186.144l-1.951 5.468-1.078-3.063 0.779-2.405zM84.049 186.144v5.789h-0.964l-1.445-1.444v-2.9l1.445-1.445zM87.92 189.611h-3.489v-1.009h1.27v-1.013h-1.27v-1.445h2.045l1.444 1.445zM86.949 191.933h-2.518v-1.351h3.237v0.625zM91.374 191.933h-2.429v-5.789h2.429zM92.803 191.933v-4.344h-1.036v-0.632l0.808-0.813h1.34l1.303 1.304v4.485zM96.341 191.933v-5.789h2.414v5.789zM96.341 185.425v-1.538h2.414v1.538zM103.715 188.995v-1.406h-1.024v-0.632l0.806-0.813h1.46l1.172 1.353v1.498zM102.302 191.933h-2.409v-5.789h2.409zM113.661 183.936h2.409v7.997h-2.409zM112.118 187.589v2.993h1.161v0.779l-0.571 0.572h-1.695l-1.303-1.302v-3.183l1.303-1.304h2.266v1.445zM119.564 186.144v5.789h-0.965l-1.444-1.444v-2.9l1.444-1.445zM123.435 189.611h-3.489v-1.009h1.27v-1.013h-1.27v-1.445h2.045l1.444 1.445zM122.464 191.933h-2.518v-1.351h3.237v0.625zM128.869 191.933l-2.163-5.789h2.391l2.06 5.789zM133.354 186.144l-1.951 5.468-1.079-3.063 0.78-2.405zM140.297 187.589v2.9l-1.442 1.444h-1.614v-1.351h0.598v-2.993h-0.598v-1.445h1.614zM136.232 187.589v2.993h0.627v1.351h-1.619l-1.444-1.444v-2.9l1.444-1.445h1.619v1.445zM141.34 187.441l1.301-1.297h0.965v2.045h2.748l1.252 1.264v1.129l-1.346 1.351h-1.063v-2.186h-2.605l-1.252-1.205zM143.749 190.276v0.594h1.067v1.063l-2.478-0.004-1.005-1.19v-0.463zM145.197 187.66v-0.453h-1.21v-1.063h2.563l0.862 0.862v0.654zM151.444 191.933v-5.789h2.415v5.789zM151.444 185.425v-1.538h2.415v1.538zM157.429 191.933h-2.431v-5.789h2.431zM158.856 191.933v-4.344h-1.034v-0.632l0.806-0.813h1.342l1.301 1.304v4.485zM163.91 191.933l-2.165-5.789h2.393l2.061 5.789zM168.395 186.144l-1.951 5.468-1.078-3.063 0.779-2.405zM171.246 186.144v5.789h-0.964l-1.445-1.444v-2.9l1.445-1.445zM175.115 189.611h-3.487v-1.009h1.27v-1.013h-1.27v-1.445h2.043l1.444 1.445zM174.146 191.933h-2.518v-1.351h3.237v0.625zM176.097 187.441l1.302-1.297h0.964v2.045h2.749l1.252 1.264v1.129l-1.346 1.351h-1.063v-2.186h-2.605l-1.253-1.205zM178.506 190.276v0.594h1.067v1.063l-2.48-0.004-1.002-1.19v-0.463zM179.955 187.66v-0.453h-1.21v-1.063h2.563l0.86 0.862v0.654zM185.782 184.7v5.789h1.592v1.444h-2.552l-1.449-1.444v-2.9h-0.48v-1.445h0.48v-0.627zM187.461 187.589h-1.297v-1.445h1.297zM188.3 191.933v-5.789h2.414v5.789zM188.3 185.425v-1.538h2.414v1.538zM191.81 187.441l1.304-1.297h0.964v2.045h2.746l1.255 1.264v1.129l-1.347 1.351h-1.062v-2.186h-2.606l-1.254-1.205zM194.219 190.276v0.594h1.069v1.063l-2.48-0.004-1.003-1.19v-0.463zM195.67 187.66v-0.453h-1.21v-1.063h2.56l0.862 0.862v0.654zM198.978 187.441l1.302-1.297h0.964v2.045h2.749l1.252 1.264v1.129l-1.346 1.351h-1.063v-2.186h-2.605l-1.253-1.205zM201.387 190.276v0.594h1.067v1.063l-2.48-0.004-1.002-1.19v-0.463zM202.836 187.66v-0.453h-1.21v-1.063h2.563l0.859 0.862v0.654zM208.549 186.144v5.789h-0.964l-1.445-1.444v-2.9l1.445-1.445zM212.418 189.611h-3.487v-1.009h1.27v-1.013h-1.27v-1.445h2.043l1.444 1.445zM211.449 191.933h-2.518v-1.351h3.237v0.625zM215.939 191.933h-2.414v-5.789h2.414zM217.303 191.933v-4.344h-0.983v-0.681l0.759-0.764h1.865l0.772 0.775v5.014zM221.08 191.933v-4.344h-0.982v-0.67l0.741-0.775h1.471l1.179 1.188v4.601zM226.938 186.144v5.789h-0.964l-1.445-1.444v-2.9l1.445-1.445zM230.807 189.611h-3.487v-1.009h1.27v-1.013h-1.27v-1.445h2.045l1.442 1.445zM229.838 191.933h-2.518v-1.351h3.237v0.625zM234.263 191.933h-2.431v-5.789h2.431zM235.692 191.933v-4.344h-1.036v-0.632l0.806-0.813h1.342l1.303 1.304v4.485zM241.697 184.7v5.789h1.592v1.444h-2.55l-1.451-1.444v-2.9h-0.48v-1.445h0.48v-0.627zM243.376 187.589h-1.297v-1.445h1.297zM244.166 187.441l1.304-1.297h0.965v2.045h2.746l1.254 1.264v1.129l-1.346 1.351h-1.063v-2.186h-2.605l-1.255-1.205zM246.575 190.276v0.594h1.07v1.063l-2.481-0.004-1.002-1.19v-0.463zM248.026 187.66v-0.453h-1.21v-1.063h2.561l0.862 0.862v0.654z" fill="#ffffff" fill-rule="nonzero" stroke="none" stroke-width="1" stroke-linecap="butt" stroke-linejoin="miter" stroke-miterlimit="10" stroke-dasharray="" stroke-dashoffset="0" font-family="none" font-weight="none" font-size="none" text-anchor="none" style="mix-blend-mode: normal" data-fill-palette-color="secondary"></path></g></g><g transform="matrix(1,0,0,1,29.33176500000002,44.85140966526046)"><svg viewBox="0 0 316.41599999999994 45.55533066947907" height="45.55533066947907" width="316.41599999999994"><g><svg viewBox="0 0 380.56688214758947 54.791319522673035" height="45.55533066947907" width="316.41599999999994"><g transform="matrix(1,0,0,1,64.1508821475895,7.572461670644394)"><svg viewBox="0 0 316.416 39.64639618138425" height="39.64639618138425" width="316.416"><g id="textblocktransform"><svg viewBox="0 0 316.416 39.64639618138425" height="39.64639618138425" width="316.416" id="textblock"><g><svg viewBox="0 0 316.416 39.64639618138425" height="39.64639618138425" width="316.416"><g transform="matrix(1,0,0,1,0,0)"><svg width="316.416" viewBox="2.83 -40.5 327.33000000000004 41.01" height="39.64639618138425" data-palette-color="#f8fafc"><path d="M16.92 0L16.92-31.37 2.83-31.37 2.83-38.16 38.75-38.16 38.75-31.37 24.66-31.37 24.66 0 16.92 0ZM46.09 0L46.09-28.81 53.32-28.81 53.32-24.66Q55.71-26.44 58.37-27.73 61.03-29.03 63.67-29.71L63.67-29.71 65.79-23.1Q61.62-22.68 58.46-21.23 55.3-19.78 53.32-17.14L53.32-17.14 53.32 0 46.09 0ZM69.79-9.08L69.79-9.08Q69.79-11.16 70.7-12.87 71.6-14.58 73.41-15.81 75.21-17.04 77.91-17.71 80.61-18.38 84.2-18.38L84.2-18.38Q86.86-18.38 89.8-17.99 92.74-17.6 95.87-16.8L95.87-16.8Q95.75-18.16 95.04-19.32 94.33-20.48 93.07-21.33 91.82-22.17 90.05-22.63 88.28-23.1 86.03-23.1L86.03-23.1Q84.81-23.1 83.34-22.95 81.88-22.8 80.32-22.51 78.75-22.22 77.23-21.78 75.7-21.34 74.38-20.73L74.38-20.73 72.19-26.66Q73.82-27.25 75.69-27.73 77.56-28.22 79.51-28.58 81.46-28.93 83.42-29.13 85.37-29.32 87.2-29.32L87.2-29.32Q95.28-29.32 99.21-25.2 103.14-21.07 103.14-12.55L103.14-12.55 103.14 0 95.92 0 95.92-2.71Q94.79-2.05 93.46-1.46 92.13-0.88 90.57-0.44 89.01 0 87.21 0.26 85.42 0.51 83.42 0.51L83.42 0.51Q80.05 0.51 77.5-0.22 74.95-0.95 73.24-2.25 71.53-3.54 70.66-5.29 69.79-7.03 69.79-9.08ZM77.41-9.33L77.41-9.33Q77.41-8.62 77.78-7.97 78.14-7.32 78.95-6.82 79.76-6.32 81.01-6.02 82.27-5.71 84.05-5.71L84.05-5.71Q85.96-5.71 87.74-6.05 89.52-6.4 91.06-6.96 92.6-7.52 93.84-8.25 95.09-8.98 95.92-9.77L95.92-9.77 95.92-11.04Q94.26-11.5 92.63-11.82 91.01-12.13 89.53-12.32 88.06-12.5 86.75-12.57 85.44-12.65 84.47-12.65L84.47-12.65Q82.44-12.65 81.1-12.38 79.76-12.11 78.93-11.66 78.1-11.21 77.75-10.6 77.41-9.99 77.41-9.33ZM110.47-14.28L110.47-14.28Q110.47-17.72 111.76-20.5 113.05-23.27 115.34-25.23 117.62-27.2 120.76-28.26 123.89-29.32 127.56-29.32L127.56-29.32Q129.12-29.32 130.64-29.13 132.17-28.93 133.57-28.59 134.98-28.25 136.21-27.77 137.44-27.29 138.4-26.73L138.4-26.73 138.4-40.5 145.62-40.5 145.62 0 138.4 0 138.4-2.71Q137.44-2.05 136.15-1.46 134.86-0.88 133.37-0.44 131.88 0 130.28 0.26 128.68 0.51 127.12 0.51L127.12 0.51Q123.45 0.51 120.39-0.56 117.33-1.64 115.13-3.59 112.93-5.54 111.7-8.26 110.47-10.99 110.47-14.28ZM118.06-14.28L118.06-14.28Q118.06-12.55 118.75-11.01 119.45-9.47 120.76-8.31 122.06-7.15 123.91-6.48 125.75-5.81 128.04-5.81L128.04-5.81Q129.51-5.81 130.97-6.09 132.44-6.37 133.79-6.88 135.15-7.4 136.33-8.13 137.52-8.86 138.4-9.77L138.4-9.77 138.4-19.75Q137.3-20.63 136.08-21.24 134.86-21.85 133.59-22.24 132.32-22.63 131.02-22.81 129.73-23 128.51-23L128.51-23Q126.02-23 124.08-22.33 122.14-21.66 120.81-20.48 119.47-19.31 118.77-17.72 118.06-16.14 118.06-14.28ZM153.09-14.5L153.09-14.5Q153.09-17.43 154.29-20.1 155.48-22.78 157.73-24.83 159.98-26.88 163.23-28.1 166.49-29.32 170.64-29.32L170.64-29.32Q174.77-29.32 178.08-28.09 181.39-26.86 183.69-24.71 186-22.56 187.23-19.65 188.47-16.75 188.47-13.43L188.47-13.43Q188.47-13.01 188.45-12.54 188.44-12.06 188.39-11.67L188.39-11.67 161.15-11.67Q161.61-10.38 162.65-9.3 163.69-8.23 165.25-7.45 166.81-6.67 168.86-6.24 170.91-5.81 173.4-5.81L173.4-5.81Q175.89-5.81 178.36-6.34 180.82-6.86 183.07-7.67L183.07-7.67 185.51-2.15Q184.1-1.49 182.64-0.99 181.19-0.49 179.62-0.16 178.04 0.17 176.32 0.34 174.6 0.51 172.7 0.51L172.7 0.51Q167.84 0.51 164.17-0.66 160.51-1.83 158.05-3.86 155.58-5.88 154.34-8.62 153.09-11.35 153.09-14.5ZM161.15-17.31L180.8-17.31Q180.41-18.51 179.59-19.54 178.77-20.58 177.55-21.35 176.33-22.12 174.72-22.56 173.11-23 171.18-23L171.18-23Q169.13-23 167.45-22.53 165.76-22.07 164.49-21.29 163.22-20.51 162.38-19.48 161.54-18.46 161.15-17.31L161.15-17.31ZM197.13 0L197.13-38.16 216.54-38.16Q220.93-38.16 224.16-37.24 227.38-36.33 229.5-34.59 231.63-32.86 232.67-30.37 233.7-27.88 233.7-24.73L233.7-24.73Q233.7-22.61 233.19-20.69 232.68-18.77 231.62-17.16 230.55-15.55 228.94-14.29 227.33-13.04 225.16-12.21L225.16-12.21 233.46 0 223.99 0 216.81-10.84 216.59-10.84 204.87-10.86 204.87 0 197.13 0ZM204.87-17.55L216.74-17.55Q218.93-17.55 220.58-18.07 222.23-18.58 223.34-19.51 224.45-20.43 225-21.77 225.55-23.1 225.55-24.73L225.55-24.73Q225.55-27.93 223.35-29.68 221.15-31.42 216.74-31.42L216.74-31.42 204.87-31.42 204.87-17.55ZM245.76-32.74L245.76-32.74Q244.69-32.74 243.82-33.04 242.95-33.35 242.34-33.87 241.73-34.4 241.4-35.1 241.07-35.79 241.07-36.57L241.07-36.57Q241.07-37.38 241.4-38.07 241.73-38.77 242.34-39.28 242.95-39.79 243.82-40.1 244.69-40.41 245.76-40.41L245.76-40.41Q246.86-40.41 247.73-40.1 248.59-39.79 249.2-39.28 249.81-38.77 250.14-38.07 250.47-37.38 250.47-36.57L250.47-36.57Q250.47-35.79 250.14-35.1 249.81-34.4 249.2-33.87 248.59-33.35 247.73-33.04 246.86-32.74 245.76-32.74ZM242.15 0L242.15-28.81 249.37-28.81 249.37 0 242.15 0ZM256.65-3.37L259.77-8.84Q262.7-7.08 266.22-6.25 269.73-5.42 273.42-5.42L273.42-5.42Q275.91-5.42 277.57-5.76 279.23-6.1 280.23-6.64 281.23-7.18 281.65-7.86 282.06-8.54 282.06-9.25L282.06-9.25Q282.06-10.28 281.17-11.01 280.28-11.74 278.23-11.74L278.23-11.74Q277.28-11.74 276.18-11.62 275.08-11.5 273.87-11.36 272.66-11.23 271.36-11.11 270.05-10.99 268.71-10.99L268.71-10.99Q265.78-10.99 263.72-11.62 261.65-12.26 260.36-13.35 259.06-14.45 258.48-15.95 257.89-17.46 257.89-19.19L257.89-19.19Q257.89-21.39 258.92-23.24 259.94-25.1 261.85-26.45 263.75-27.81 266.45-28.56 269.15-29.32 272.47-29.32L272.47-29.32Q274.2-29.32 276.09-29.11 277.99-28.91 279.82-28.56 281.65-28.22 283.33-27.77 285.02-27.32 286.31-26.81L286.31-26.81 284.04-21.19Q281.28-22.22 278.53-22.81 275.79-23.41 272.88-23.41L272.88-23.41Q270.86-23.41 269.45-23.11 268.05-22.8 267.17-22.3 266.29-21.8 265.89-21.15 265.49-20.51 265.49-19.8L265.49-19.8Q265.49-19.29 265.69-18.87 265.9-18.46 266.38-18.15 266.85-17.85 267.62-17.69 268.39-17.53 269.51-17.53L269.51-17.53Q270.54-17.53 271.69-17.65 272.83-17.77 274.08-17.91 275.32-18.04 276.65-18.16 277.99-18.29 279.38-18.29L279.38-18.29Q281.96-18.29 283.91-17.68 285.85-17.07 287.12-15.97 288.39-14.87 289.02-13.38 289.66-11.89 289.66-10.13L289.66-10.13Q289.66-7.86 288.61-5.91 287.56-3.96 285.48-2.53 283.41-1.1 280.32-0.29 277.23 0.51 273.18 0.51L273.18 0.51Q270.69 0.51 268.37 0.21 266.05-0.1 263.95-0.62 261.85-1.15 260-1.86 258.16-2.56 256.65-3.37L256.65-3.37ZM294.78-14.5L294.78-14.5Q294.78-17.43 295.98-20.1 297.17-22.78 299.42-24.83 301.66-26.88 304.92-28.1 308.18-29.32 312.33-29.32L312.33-29.32Q316.46-29.32 319.77-28.09 323.08-26.86 325.38-24.71 327.69-22.56 328.92-19.65 330.16-16.75 330.16-13.43L330.16-13.43Q330.16-13.01 330.14-12.54 330.13-12.06 330.08-11.67L330.08-11.67 302.84-11.67Q303.3-10.38 304.34-9.3 305.38-8.23 306.94-7.45 308.5-6.67 310.55-6.24 312.6-5.81 315.09-5.81L315.09-5.81Q317.58-5.81 320.05-6.34 322.51-6.86 324.76-7.67L324.76-7.67 327.2-2.15Q325.79-1.49 324.33-0.99 322.88-0.49 321.31-0.16 319.73 0.17 318.01 0.34 316.29 0.51 314.38 0.51L314.38 0.51Q309.53 0.51 305.86-0.66 302.2-1.83 299.74-3.86 297.27-5.88 296.02-8.62 294.78-11.35 294.78-14.5ZM302.84-17.31L322.49-17.31Q322.1-18.51 321.28-19.54 320.46-20.58 319.24-21.35 318.02-22.12 316.41-22.56 314.8-23 312.87-23L312.87-23Q310.82-23 309.14-22.53 307.45-22.07 306.18-21.29 304.91-20.51 304.07-19.48 303.23-18.46 302.84-17.31L302.84-17.31Z" opacity="1" transform="matrix(1,0,0,1,0,0)" fill="#ffffff" class="wordmark-text-0" data-fill-palette-color="primary" id="text-0"></path></svg></g></svg></g></svg></g></svg></g><g><svg viewBox="0 0 54.791319522673035 54.791319522673035" height="54.791319522673035" width="54.791319522673035"><g data-palette-color="#f8fafc"><rect width="14.97629400286396" height="54.791319522673035" fill="#ffffff" stroke="transparent" data-fill-palette-color="accent" x="0" fill-opacity="0.5"></rect><rect width="14.97629400286396" height="54.791319522673035" fill="#ffffff" stroke="transparent" data-fill-palette-color="accent" x="18.263773174224344" fill-opacity="0.75"></rect><rect width="14.97629400286396" height="54.791319522673035" fill="#ffffff" stroke="transparent" data-fill-palette-color="accent" x="36.52754634844869" fill-opacity="1"></rect></g></svg></g></svg></g></svg></g></svg></g><defs></defs></svg><rect width="375.07953" height="135.25815" fill="none" stroke="none" visibility="hidden"></rect></g></svg></g></svg>